<svg width="1264" height="281" viewBox="0 0 1264 281" fill="none" xmlns="http://www.w3.org/2000/svg">
<rect width="1264" height="281" rx="30" transform="matrix(1 0 0 -1 0 281)" fill="#25D366"/>
<path fill-rule="evenodd" clip-rule="evenodd" d="M274.104 75.7016C265.61 67.2034 255.519 60.4693 244.412 55.8867C233.305 51.3042 221.401 48.9639 209.386 49.0004C158.961 49.0004 117.912 89.8438 117.892 140.055C117.87 156.044 122.084 171.752 130.106 185.582L117.125 232.75L165.626 220.089C179.051 227.362 194.08 231.168 209.349 231.163H209.386C259.806 231.163 300.85 190.316 300.875 140.108C300.906 128.134 298.554 116.273 293.958 105.216C289.363 94.159 282.614 84.1262 274.104 75.7016V75.7016ZM209.386 215.795H209.353C195.741 215.799 182.377 212.156 170.65 205.245L167.874 203.605L139.093 211.119L146.775 183.191L144.966 180.32C137.355 168.271 133.323 154.307 133.338 140.055C133.338 98.3299 167.468 64.3813 209.414 64.3813C229.536 64.3453 248.849 72.3036 263.104 86.5056C277.359 100.708 285.389 119.99 285.429 140.113C285.412 181.842 251.299 215.795 209.386 215.795V215.795ZM251.094 159.115C248.81 157.975 237.559 152.471 235.476 151.712C233.392 150.953 231.854 150.572 230.332 152.852C228.811 155.132 224.426 160.235 223.093 161.773C221.76 163.311 220.427 163.479 218.142 162.339C215.858 161.199 208.487 158.799 199.755 151.047C192.959 145.014 188.373 137.565 187.04 135.289C185.707 133.013 186.897 131.778 188.041 130.646C189.071 129.625 190.326 127.988 191.47 126.659C192.614 125.331 192.996 124.379 193.754 122.861C194.513 121.344 194.136 120.015 193.566 118.879C192.996 117.743 188.422 106.541 186.519 101.984C184.661 97.5465 182.779 98.1495 181.376 98.0797C180.043 98.0141 178.505 97.9977 176.991 97.9977C175.834 98.0278 174.696 98.2961 173.647 98.7859C172.599 99.2756 171.662 99.9763 170.896 100.844C168.801 103.125 162.894 108.637 162.894 119.826C162.894 131.015 171.097 141.843 172.229 143.361C173.362 144.879 188.349 167.86 211.28 177.716C215.539 179.539 219.89 181.138 224.315 182.506C229.791 184.237 234.774 183.995 238.712 183.409C243.104 182.756 252.247 177.904 254.146 172.589C256.045 167.273 256.049 162.72 255.479 161.773C254.909 160.825 253.383 160.251 251.094 159.115V159.115Z" fill="white"/>
<path d="M398.9 115.86V165H386.93V144.77H368.31V165H356.34V115.86H368.31V135.11H386.93V115.86H398.9ZM446.111 125.94V165H434.141V159.68C432.928 161.407 431.271 162.807 429.171 163.88C427.118 164.907 424.831 165.42 422.311 165.42C419.325 165.42 416.688 164.767 414.401 163.46C412.115 162.107 410.341 160.17 409.081 157.65C407.821 155.13 407.191 152.167 407.191 148.76V125.94H419.091V147.15C419.091 149.763 419.768 151.793 421.121 153.24C422.475 154.687 424.295 155.41 426.581 155.41C428.915 155.41 430.758 154.687 432.111 153.24C433.465 151.793 434.141 149.763 434.141 147.15V125.94H446.111ZM466.679 131.47C467.799 129.65 469.409 128.18 471.509 127.06C473.609 125.94 476.012 125.38 478.719 125.38C481.939 125.38 484.856 126.197 487.469 127.83C490.082 129.463 492.136 131.797 493.629 134.83C495.169 137.863 495.939 141.387 495.939 145.4C495.939 149.413 495.169 152.96 493.629 156.04C492.136 159.073 490.082 161.43 487.469 163.11C484.856 164.743 481.939 165.56 478.719 165.56C475.966 165.56 473.562 165.023 471.509 163.95C469.456 162.83 467.846 161.36 466.679 159.54V165H454.709V113.2H466.679V131.47ZM483.759 145.4C483.759 142.413 482.919 140.08 481.239 138.4C479.606 136.673 477.576 135.81 475.149 135.81C472.769 135.81 470.739 136.673 469.059 138.4C467.426 140.127 466.609 142.483 466.609 145.47C466.609 148.457 467.426 150.813 469.059 152.54C470.739 154.267 472.769 155.13 475.149 155.13C477.529 155.13 479.559 154.267 481.239 152.54C482.919 150.767 483.759 148.387 483.759 145.4ZM540.789 125.94V165H528.819V159.68C527.606 161.407 525.949 162.807 523.849 163.88C521.796 164.907 519.509 165.42 516.989 165.42C514.002 165.42 511.366 164.767 509.079 163.46C506.792 162.107 505.019 160.17 503.759 157.65C502.499 155.13 501.869 152.167 501.869 148.76V125.94H513.769V147.15C513.769 149.763 514.446 151.793 515.799 153.24C517.152 154.687 518.972 155.41 521.259 155.41C523.592 155.41 525.436 154.687 526.789 153.24C528.142 151.793 528.819 149.763 528.819 147.15V125.94H540.789ZM573.187 125.52C577.76 125.52 581.4 127.013 584.107 130C586.86 132.94 588.237 137 588.237 142.18V165H576.337V143.79C576.337 141.177 575.66 139.147 574.307 137.7C572.954 136.253 571.134 135.53 568.847 135.53C566.56 135.53 564.74 136.253 563.387 137.7C562.034 139.147 561.357 141.177 561.357 143.79V165H549.387V125.94H561.357V131.12C562.57 129.393 564.204 128.04 566.257 127.06C568.31 126.033 570.62 125.52 573.187 125.52ZM611.395 125.38C614.148 125.38 616.552 125.94 618.605 127.06C620.705 128.18 622.315 129.65 623.435 131.47V125.94H635.405V164.93C635.405 168.523 634.682 171.767 633.235 174.66C631.835 177.6 629.665 179.933 626.725 181.66C623.832 183.387 620.215 184.25 615.875 184.25C610.088 184.25 605.398 182.873 601.805 180.12C598.212 177.413 596.158 173.727 595.645 169.06H607.475C607.848 170.553 608.735 171.72 610.135 172.56C611.535 173.447 613.262 173.89 615.315 173.89C617.788 173.89 619.748 173.167 621.195 171.72C622.688 170.32 623.435 168.057 623.435 164.93V159.4C622.268 161.22 620.658 162.713 618.605 163.88C616.552 165 614.148 165.56 611.395 165.56C608.175 165.56 605.258 164.743 602.645 163.11C600.032 161.43 597.955 159.073 596.415 156.04C594.922 152.96 594.175 149.413 594.175 145.4C594.175 141.387 594.922 137.863 596.415 134.83C597.955 131.797 600.032 129.463 602.645 127.83C605.258 126.197 608.175 125.38 611.395 125.38ZM623.435 145.47C623.435 142.483 622.595 140.127 620.915 138.4C619.282 136.673 617.275 135.81 614.895 135.81C612.515 135.81 610.485 136.673 608.805 138.4C607.172 140.08 606.355 142.413 606.355 145.4C606.355 148.387 607.172 150.767 608.805 152.54C610.485 154.267 612.515 155.13 614.895 155.13C617.275 155.13 619.282 154.267 620.915 152.54C622.595 150.813 623.435 148.457 623.435 145.47ZM650.085 121.88C647.985 121.88 646.258 121.273 644.905 120.06C643.598 118.8 642.945 117.26 642.945 115.44C642.945 113.573 643.598 112.033 644.905 110.82C646.258 109.56 647.985 108.93 650.085 108.93C652.138 108.93 653.818 109.56 655.125 110.82C656.478 112.033 657.155 113.573 657.155 115.44C657.155 117.26 656.478 118.8 655.125 120.06C653.818 121.273 652.138 121.88 650.085 121.88ZM656.035 125.94V165H644.065V125.94H656.035ZM725.673 115.86L708.243 165H693.263L675.833 115.86H688.573L700.753 152.96L713.003 115.86H725.673ZM736.696 121.88C734.596 121.88 732.869 121.273 731.516 120.06C730.209 118.8 729.556 117.26 729.556 115.44C729.556 113.573 730.209 112.033 731.516 110.82C732.869 109.56 734.596 108.93 736.696 108.93C738.749 108.93 740.429 109.56 741.736 110.82C743.089 112.033 743.766 113.573 743.766 115.44C743.766 117.26 743.089 118.8 741.736 120.06C740.429 121.273 738.749 121.88 736.696 121.88ZM742.646 125.94V165H730.676V125.94H742.646ZM748.94 145.4C748.94 141.387 749.687 137.863 751.18 134.83C752.72 131.797 754.797 129.463 757.41 127.83C760.024 126.197 762.94 125.38 766.16 125.38C768.914 125.38 771.317 125.94 773.37 127.06C775.47 128.18 777.08 129.65 778.2 131.47V125.94H790.17V165H778.2V159.47C777.034 161.29 775.4 162.76 773.3 163.88C771.247 165 768.844 165.56 766.09 165.56C762.917 165.56 760.024 164.743 757.41 163.11C754.797 161.43 752.72 159.073 751.18 156.04C749.687 152.96 748.94 149.413 748.94 145.4ZM778.2 145.47C778.2 142.483 777.36 140.127 775.68 138.4C774.047 136.673 772.04 135.81 769.66 135.81C767.28 135.81 765.25 136.673 763.57 138.4C761.937 140.08 761.12 142.413 761.12 145.4C761.12 148.387 761.937 150.767 763.57 152.54C765.25 154.267 767.28 155.13 769.66 155.13C772.04 155.13 774.047 154.267 775.68 152.54C777.36 150.813 778.2 148.457 778.2 145.47ZM881.284 115.86L868.474 165H853.984L846.144 132.66L838.024 165H823.534L811.074 115.86H823.884L830.954 151.63L839.704 115.86H852.864L861.264 151.63L868.404 115.86H881.284ZM911.297 125.52C915.777 125.52 919.371 127.013 922.077 130C924.784 132.94 926.137 137 926.137 142.18V165H914.237V143.79C914.237 141.177 913.561 139.147 912.207 137.7C910.854 136.253 909.034 135.53 906.747 135.53C904.461 135.53 902.641 136.253 901.287 137.7C899.934 139.147 899.257 141.177 899.257 143.79V165H887.287V113.2H899.257V131.19C900.471 129.463 902.127 128.087 904.227 127.06C906.327 126.033 908.684 125.52 911.297 125.52ZM932.075 145.4C932.075 141.387 932.822 137.863 934.315 134.83C935.855 131.797 937.932 129.463 940.545 127.83C943.159 126.197 946.075 125.38 949.295 125.38C952.049 125.38 954.452 125.94 956.505 127.06C958.605 128.18 960.215 129.65 961.335 131.47V125.94H973.305V165H961.335V159.47C960.169 161.29 958.535 162.76 956.435 163.88C954.382 165 951.979 165.56 949.225 165.56C946.052 165.56 943.159 164.743 940.545 163.11C937.932 161.43 935.855 159.073 934.315 156.04C932.822 152.96 932.075 149.413 932.075 145.4ZM961.335 145.47C961.335 142.483 960.495 140.127 958.815 138.4C957.182 136.673 955.175 135.81 952.795 135.81C950.415 135.81 948.385 136.673 946.705 138.4C945.072 140.08 944.255 142.413 944.255 145.4C944.255 148.387 945.072 150.767 946.705 152.54C948.385 154.267 950.415 155.13 952.795 155.13C955.175 155.13 957.182 154.267 958.815 152.54C960.495 150.813 961.335 148.457 961.335 145.47ZM1003.74 154.85V165H997.645C993.305 165 989.922 163.95 987.495 161.85C985.068 159.703 983.855 156.227 983.855 151.42V135.88H979.095V125.94H983.855V116.42H995.825V125.94H1003.67V135.88H995.825V151.56C995.825 152.727 996.105 153.567 996.665 154.08C997.225 154.593 998.158 154.85 999.465 154.85H1003.74ZM1026.29 165.56C1022.89 165.56 1019.85 164.977 1017.19 163.81C1014.53 162.643 1012.43 161.057 1010.89 159.05C1009.35 156.997 1008.49 154.71 1008.3 152.19H1020.13C1020.27 153.543 1020.9 154.64 1022.02 155.48C1023.14 156.32 1024.52 156.74 1026.15 156.74C1027.65 156.74 1028.79 156.46 1029.58 155.9C1030.42 155.293 1030.84 154.523 1030.84 153.59C1030.84 152.47 1030.26 151.653 1029.09 151.14C1027.93 150.58 1026.04 149.973 1023.42 149.32C1020.62 148.667 1018.29 147.99 1016.42 147.29C1014.56 146.543 1012.95 145.4 1011.59 143.86C1010.24 142.273 1009.56 140.15 1009.56 137.49C1009.56 135.25 1010.17 133.22 1011.38 131.4C1012.64 129.533 1014.46 128.063 1016.84 126.99C1019.27 125.917 1022.14 125.38 1025.45 125.38C1030.35 125.38 1034.2 126.593 1037 129.02C1039.85 131.447 1041.48 134.667 1041.9 138.68H1030.84C1030.66 137.327 1030.05 136.253 1029.02 135.46C1028.04 134.667 1026.74 134.27 1025.1 134.27C1023.7 134.27 1022.63 134.55 1021.88 135.11C1021.14 135.623 1020.76 136.347 1020.76 137.28C1020.76 138.4 1021.35 139.24 1022.51 139.8C1023.73 140.36 1025.59 140.92 1028.11 141.48C1031.01 142.227 1033.36 142.973 1035.18 143.72C1037 144.42 1038.59 145.587 1039.94 147.22C1041.34 148.807 1042.07 150.953 1042.11 153.66C1042.11 155.947 1041.46 158 1040.15 159.82C1038.89 161.593 1037.05 162.993 1034.62 164.02C1032.24 165.047 1029.47 165.56 1026.29 165.56ZM1080.03 156.32H1061.69L1058.75 165H1046.22L1064 115.86H1077.86L1095.64 165H1082.97L1080.03 156.32ZM1076.95 147.08L1070.86 129.09L1064.84 147.08H1076.95ZM1113.02 131.47C1114.18 129.65 1115.79 128.18 1117.85 127.06C1119.9 125.94 1122.3 125.38 1125.06 125.38C1128.28 125.38 1131.19 126.197 1133.81 127.83C1136.42 129.463 1138.47 131.797 1139.97 134.83C1141.51 137.863 1142.28 141.387 1142.28 145.4C1142.28 149.413 1141.51 152.96 1139.97 156.04C1138.47 159.073 1136.42 161.43 1133.81 163.11C1131.19 164.743 1128.28 165.56 1125.06 165.56C1122.35 165.56 1119.95 165 1117.85 163.88C1115.79 162.76 1114.18 161.313 1113.02 159.54V183.62H1101.05V125.94H1113.02V131.47ZM1130.1 145.4C1130.1 142.413 1129.26 140.08 1127.58 138.4C1125.94 136.673 1123.91 135.81 1121.49 135.81C1119.11 135.81 1117.08 136.673 1115.4 138.4C1113.76 140.127 1112.95 142.483 1112.95 145.47C1112.95 148.457 1113.76 150.813 1115.4 152.54C1117.08 154.267 1119.11 155.13 1121.49 155.13C1123.87 155.13 1125.9 154.267 1127.58 152.54C1129.26 150.767 1130.1 148.387 1130.1 145.4ZM1160.53 131.47C1161.69 129.65 1163.3 128.18 1165.36 127.06C1167.41 125.94 1169.81 125.38 1172.57 125.38C1175.79 125.38 1178.7 126.197 1181.32 127.83C1183.93 129.463 1185.98 131.797 1187.48 134.83C1189.02 137.863 1189.79 141.387 1189.79 145.4C1189.79 149.413 1189.02 152.96 1187.48 156.04C1185.98 159.073 1183.93 161.43 1181.32 163.11C1178.7 164.743 1175.79 165.56 1172.57 165.56C1169.86 165.56 1167.46 165 1165.36 163.88C1163.3 162.76 1161.69 161.313 1160.53 159.54V183.62H1148.56V125.94H1160.53V131.47ZM1177.61 145.4C1177.61 142.413 1176.77 140.08 1175.09 138.4C1173.45 136.673 1171.42 135.81 1169 135.81C1166.62 135.81 1164.59 136.673 1162.91 138.4C1161.27 140.127 1160.46 142.483 1160.46 145.47C1160.46 148.457 1161.27 150.813 1162.91 152.54C1164.59 154.267 1166.62 155.13 1169 155.13C1171.38 155.13 1173.41 154.267 1175.09 152.54C1176.77 150.767 1177.61 148.387 1177.61 145.4Z" fill="white"/>
</svg>
